<?xml version="1.0" standalone="no"?><!DOCTYPE svg PUBLIC "-//W3C//DTD SVG 1.1//EN" "http://www.w3.org/Graphics/SVG/1.1/DTD/svg11.dtd"><svg t="1610773089157" class="icon" viewBox="0 0 1024 1024" version="1.1" xmlns="http://www.w3.org/2000/svg" p-id="6896" xmlns:xlink="http://www.w3.org/1999/xlink" width="200" height="200"><defs><style type="text/css"></style></defs><path d="M945.230769 39.384615L512 118.153846 78.769231 39.384615a39.384615 39.384615 0 0 0-39.384616 39.384616v787.692307a39.384615 39.384615 0 0 0 39.384616 39.384616l433.230769 78.769231 433.230769-78.769231a39.384615 39.384615 0 0 0 39.384616-39.384616V78.769231a39.384615 39.384615 0 0 0-39.384616-39.384616zM472.615385 897.969231L118.153846 827.076923v-78.769231l354.461539 78.769231v70.892308z m0-110.276923l-354.461539-78.769231V118.153846l354.461539 70.892308V787.692308z m433.230769 39.384615l-354.461539 70.892308V827.076923l354.461539-78.769231v78.769231z m0-118.153846l-354.461539 78.769231V189.046154L905.846154 118.153846v590.769231z m-78.769231-118.153846l-196.923077 39.384615v39.384616l196.923077-39.384616v-39.384615z m0-118.153846l-196.923077 39.384615v39.384615l196.923077-39.384615v-39.384615z m0-118.153847l-196.923077 39.384616v39.384615l196.923077-39.384615V354.461538z m0-118.153846l-196.923077 39.384616v39.384615l196.923077-39.384615V236.307692zM393.846154 630.153846l-196.923077-39.384615v39.384615l196.923077 39.384616v-39.384616z m0-118.153846l-196.923077-39.384615v39.384615l196.923077 39.384615v-39.384615z m0-118.153846L196.923077 354.461538v39.384616l196.923077 39.384615v-39.384615z m0-118.153846L196.923077 236.307692v39.384616l196.923077 39.384615V275.692308z" fill="#6c6c6b" p-id="6897"></path></svg>